<svg width="81" height="80" viewBox="0 0 81 80" fill="none" xmlns="http://www.w3.org/2000/svg">
<path d="M54.4302 51.3059C52.5347 51.3059 50.9927 49.9712 50.9927 48.3307C50.9927 46.6901 52.5347 45.3554 54.4302 45.3554C56.3256 45.3554 57.8677 46.6901 57.8677 48.3307C57.8677 49.1935 58.5673 49.8932 59.4302 49.8932C60.293 49.8932 60.9927 49.1935 60.9927 48.3307C60.9927 45.4675 58.8592 43.06 55.9927 42.4065V41.5939C55.9927 40.7311 55.293 40.0314 54.4302 40.0314C53.5674 40.0314 52.8677 40.7311 52.8677 41.5939V42.4065C50.0011 43.06 47.8677 45.4675 47.8677 48.3307C47.8677 51.6943 50.8116 54.4309 54.4302 54.4309C56.3256 54.4309 57.8677 55.7656 57.8677 57.4062C57.8677 59.0468 56.3256 60.3815 54.4302 60.3815C52.5347 60.3815 50.9927 59.0468 50.9927 57.4062C50.9927 56.5434 50.293 55.8437 49.4302 55.8437C48.5674 55.8437 47.8677 56.5434 47.8677 57.4062C47.8677 60.2695 50.0011 62.677 52.8677 63.3304V64.0054C52.8677 64.8682 53.5674 65.5679 54.4302 65.5679C55.293 65.5679 55.9927 64.8682 55.9927 64.0054V63.3304C58.8592 62.677 60.9927 60.2695 60.9927 57.4062C60.9927 54.0424 58.0488 51.3059 54.4302 51.3059Z" fill="url(#paint0_linear)"/>
<path d="M71.5442 42.0118C69.5031 38.8313 66.6275 36.2863 63.2282 34.6523C62.4503 34.2782 61.5167 34.6057 61.1429 35.3835C60.769 36.1613 61.0964 37.0948 61.8742 37.4687C67.7978 40.3162 71.6251 46.4004 71.6251 52.9688C71.6251 55.7794 70.9323 58.5668 69.6218 61.0299C69.2165 61.7916 69.5054 62.7379 70.2673 63.1432C70.501 63.2675 70.7523 63.3266 70.9998 63.3266C71.5589 63.3266 72.0996 63.0257 72.3806 62.4977C73.9307 59.5846 74.7501 56.2894 74.7501 52.9688C74.7501 49.0688 73.6415 45.2799 71.5442 42.0118Z" fill="#2B7AF1"/>
<path d="M56.8864 32.6565L56.7813 32.6564C55.9184 32.6564 55.2188 33.3559 55.2188 34.2189C55.2188 35.0818 55.9184 35.7814 56.7813 35.7814L56.8717 35.7815C56.8742 35.7815 56.8766 35.7815 56.8792 35.7815C57.7388 35.7815 58.4375 35.0868 58.4416 34.2264C58.4455 33.3634 57.7492 32.6606 56.8864 32.6565Z" fill="url(#paint1_linear)"/>
<path d="M47.0013 68.469C41.0778 65.6213 37.2505 59.5371 37.2505 52.9688C37.2505 50.1582 37.9433 47.3709 39.2538 44.9078C39.6591 44.146 39.3702 43.1998 38.6083 42.7945C37.8467 42.3892 36.9002 42.6781 36.495 43.44C34.9449 46.3532 34.1255 49.6482 34.1255 52.9688C34.1255 56.8688 35.2341 60.6576 37.3314 63.9259C39.3725 67.1063 42.2481 69.6513 45.6473 71.2855C45.8656 71.3905 46.0963 71.4401 46.3233 71.4401C46.9052 71.4401 47.4636 71.1136 47.7327 70.5543C48.1063 69.7765 47.7791 68.8429 47.0013 68.469Z" fill="#2B7AF1"/>
<path d="M52.0941 70.1563L52.0036 70.156C51.1368 70.1544 50.438 70.848 50.4341 71.7112C50.43 72.5741 51.1266 73.277 51.9894 73.281L52.0941 73.2813C52.9569 73.2813 53.6566 72.5816 53.6566 71.7188C53.6566 70.856 52.9569 70.1563 52.0941 70.1563Z" fill="url(#paint2_linear)"/>
<path d="M61.5325 27.3699C61.3424 26.9168 61.1094 26.4898 60.8383 26.0937H64.9061C68.8692 26.0937 72.0936 22.8693 72.0936 18.9062C72.0936 14.9431 68.8692 11.7187 64.9061 11.7187H52.3937C53.1891 10.5622 53.6562 9.16295 53.6562 7.65624C53.6562 3.69312 50.4318 0.46875 46.4687 0.46875H8.18749C4.22437 0.46875 1 3.69312 1 7.65624C1 11.6194 4.22437 14.8437 8.18749 14.8437H20.7C19.9045 16.0003 19.4375 17.3995 19.4375 18.9062C19.4375 20.4129 19.9043 21.8121 20.7 22.9687H16.625C12.6619 22.9687 9.43748 26.1931 9.43748 30.1562C9.43748 32.4323 10.5022 34.4634 12.1586 35.7812C10.5022 37.099 9.43748 39.1301 9.43748 41.4062C9.43748 43.6823 10.5022 45.7134 12.1586 47.0312C10.5022 48.349 9.43748 50.3801 9.43748 52.6562C9.43748 54.9322 10.5022 56.9633 12.1586 58.2811C10.5022 59.5989 9.43748 61.63 9.43748 63.9061C9.43748 67.8692 12.6619 71.0936 16.625 71.0936H35.039C39.8899 76.2822 46.7909 79.5313 54.4376 79.5313C69.0841 79.5313 81 67.6153 81 52.9688C81 40.7787 72.7453 30.4817 61.5325 27.3699ZM64.9061 14.8437C67.1463 14.8437 68.9686 16.6662 68.9686 18.9062C68.9686 21.1462 67.1463 22.9687 64.9061 22.9687H54.9061H26.625C24.3848 22.9687 22.5625 21.1462 22.5625 18.9062C22.5625 16.6662 24.3848 14.8437 26.625 14.8437H64.9061ZM8.18749 11.7187C5.94733 11.7187 4.12499 9.89623 4.12499 7.65624C4.12499 5.41624 5.94733 3.59374 8.18749 3.59374H46.4687C48.7088 3.59374 50.5312 5.41624 50.5312 7.65624C50.5312 9.89623 48.7088 11.7187 46.4687 11.7187H8.18749ZM16.625 26.0937H54.9061C55.5355 26.0937 56.1382 26.24 56.6788 26.5018C55.9397 26.4398 55.1926 26.4064 54.4376 26.4064C47.1024 26.4064 40.4524 29.3953 35.6409 34.2187H16.625C14.385 34.2187 12.5625 32.3962 12.5625 30.1562C12.5625 27.9162 14.385 26.0937 16.625 26.0937ZM16.625 37.3437H32.971C31.1973 39.7738 29.8259 42.5148 28.9549 45.4687H16.625C14.3848 45.4687 12.5625 43.6463 12.5625 41.4062C12.5625 39.1662 14.3848 37.3437 16.625 37.3437ZM16.625 48.5937H28.2374C28.0004 50.0176 27.8751 51.4787 27.8751 52.9688C27.8751 54.2416 27.9671 55.4932 28.141 56.7186H16.625C14.3848 56.7186 12.5625 54.8963 12.5625 52.6562C12.5625 50.416 14.3848 48.5937 16.625 48.5937ZM16.625 67.9686C14.3848 67.9686 12.5625 66.1463 12.5625 63.9061C12.5625 61.666 14.3848 59.8436 16.625 59.8436H28.779C29.5674 62.7832 30.8482 65.5227 32.5279 67.9686H16.625ZM54.4376 76.4063C41.5141 76.4063 31.0001 65.8922 31.0001 52.9688C31.0001 40.0454 41.5141 29.5314 54.4376 29.5314C67.361 29.5314 77.875 40.0454 77.875 52.9688C77.875 65.8922 67.361 76.4063 54.4376 76.4063Z" fill="#2B7AF1"/>
<defs>
<linearGradient id="paint0_linear" x1="47.8677" y1="52.7996" x2="60.9952" y2="52.7724" gradientUnits="userSpaceOnUse">
<stop stop-color="#FF7A00"/>
<stop offset="1" stop-color="#FFB039"/>
</linearGradient>
<linearGradient id="paint1_linear" x1="55.2187" y1="34.2189" x2="58.4422" y2="34.2055" gradientUnits="userSpaceOnUse">
<stop stop-color="#FF7A00"/>
<stop offset="1" stop-color="#FFB039"/>
</linearGradient>
<linearGradient id="paint2_linear" x1="50.4341" y1="71.7187" x2="53.6572" y2="71.7053" gradientUnits="userSpaceOnUse">
<stop stop-color="#FF7A00"/>
<stop offset="1" stop-color="#FFB039"/>
</linearGradient>
</defs>
</svg>
