<svg width="70" height="80" viewBox="0 0 70 80" fill="none" xmlns="http://www.w3.org/2000/svg">
<path d="M67.8741 13.8142C56.8671 10.7983 45.7954 6.10221 35.8559 0.233789C35.3279 -0.0779295 34.6728 -0.0779295 34.145 0.233789C23.9187 6.27081 13.4453 10.7128 2.12582 13.8142C1.39457 14.0144 0.887695 14.6791 0.887695 15.4374V32.632C0.887695 50.3387 9.05627 62.0593 15.9091 68.7735C23.2866 76.0024 31.8803 80 35.0004 80C38.1203 80 46.714 76.0024 54.0915 68.7735C60.9441 62.0595 69.1123 50.3388 69.1123 32.632V15.4372C69.1123 14.6791 68.6054 14.0144 67.8741 13.8142ZM65.7466 32.6319C65.7466 49.1698 58.1277 60.1065 51.7359 66.3693C44.481 73.4779 36.7243 76.6341 35.0004 76.6341C33.2765 76.6341 25.5194 73.4779 18.2644 66.3693C11.8727 60.1063 4.25347 49.1698 4.25347 32.6319V16.7147C15.0781 13.6413 25.1591 9.35205 35.0008 3.63284C44.5967 9.20033 55.1806 13.7028 65.7466 16.7141V32.6319Z" fill="#2B7AF1"/>
<path d="M20.0842 16.5265C19.7436 15.6617 18.7666 15.2368 17.9016 15.5776C14.8953 16.7621 11.8097 17.8524 8.73049 18.8184C8.02877 19.0387 7.55127 19.6887 7.55127 20.424V26.9226C7.55127 27.8519 8.30486 28.6054 9.23408 28.6054C10.1633 28.6054 10.9169 27.8519 10.9169 26.9226V21.6538C13.6792 20.7601 16.4386 19.7715 19.1353 18.7088C20.0002 18.3684 20.425 17.3913 20.0842 16.5265Z" fill="#2B7AF1"/>
<path d="M23.2809 16.8457C23.5067 16.8457 23.7359 16.8002 23.9557 16.7043L23.9867 16.6909C24.8381 16.3177 25.2215 15.3267 24.8484 14.4756C24.4749 13.6242 23.4782 13.239 22.6278 13.6118L22.6006 13.6235C21.7487 13.9956 21.364 14.9859 21.7361 15.8374C22.0121 16.4696 22.6317 16.8457 23.2809 16.8457Z" fill="url(#paint0_linear)"/>
<path d="M55.0504 54.263C54.2727 53.7547 53.2299 53.9733 52.721 54.7512C51.3343 56.8737 49.7074 58.9062 47.8849 60.7917C46.3862 62.342 44.7621 63.787 43.0579 65.0862C42.319 65.6497 42.1768 66.7056 42.7401 67.4448C43.0715 67.879 43.5726 68.1075 44.0795 68.1075C44.4354 68.1075 44.794 67.9951 45.0987 67.7626C46.937 66.3609 48.6885 64.8026 50.3044 63.1311C52.2749 61.093 54.0358 58.893 55.5387 56.5922C56.0472 55.8141 55.8283 54.7712 55.0504 54.263Z" fill="#2B7AF1"/>
<path d="M39.1495 67.7254L39.053 67.7823C38.2488 68.2481 37.9739 69.2774 38.4395 70.0817C38.7516 70.6207 39.3164 70.9217 39.8975 70.9217C40.1834 70.9217 40.4737 70.8487 40.7389 70.6948L40.8503 70.6293C41.6523 70.1596 41.9217 69.1289 41.452 68.3268C40.982 67.5251 39.9511 67.2562 39.1495 67.7254Z" fill="url(#paint1_linear)"/>
<path d="M23.5296 36.5655C22.4963 35.532 21.1221 34.9633 19.6606 34.9633C18.199 34.9633 16.8246 35.5322 15.7909 36.5655C13.6576 38.6992 13.6576 42.1711 15.7909 44.3047L25.7277 54.2412C26.7612 55.2744 28.1354 55.8433 29.5971 55.8433C31.0588 55.8433 32.433 55.2743 33.4666 54.2409L54.2105 33.4969C56.3436 31.3627 56.3436 27.8913 54.2102 25.7583C53.1767 24.7249 51.8025 24.1561 50.3407 24.1561C48.8789 24.1561 47.5047 24.725 46.4711 25.7583L29.5969 42.6325L23.5296 36.5655ZM48.8511 28.1383C49.2488 27.7407 49.778 27.5217 50.3408 27.5217C50.9039 27.5217 51.4327 27.7407 51.8307 28.1383C52.6517 28.9594 52.6517 30.296 51.8303 31.1174L31.0868 51.8611C30.6891 52.2587 30.1599 52.4776 29.5971 52.4776C29.0343 52.4776 28.5051 52.2587 28.1073 51.8611L18.1707 41.9248C17.3493 41.1034 17.3493 39.7669 18.1704 38.9458C18.5682 38.5481 19.0974 38.3289 19.6604 38.3289C20.2234 38.3289 20.7523 38.5478 21.1499 38.9455L28.4069 46.2026C28.7227 46.5181 29.1505 46.6955 29.5969 46.6955C30.0433 46.6955 30.4712 46.5183 30.7866 46.2026L48.8511 28.1383Z" fill="url(#paint2_linear)"/>
<defs>
<linearGradient id="paint0_linear" x1="21.5942" y1="15.1577" x2="24.9917" y2="15.1439" gradientUnits="userSpaceOnUse">
<stop stop-color="#FF7A00"/>
<stop offset="1" stop-color="#FFB039"/>
</linearGradient>
<linearGradient id="paint1_linear" x1="38.2129" y1="69.2081" x2="41.6836" y2="69.194" gradientUnits="userSpaceOnUse">
<stop stop-color="#FF7A00"/>
<stop offset="1" stop-color="#FFB039"/>
</linearGradient>
<linearGradient id="paint2_linear" x1="14.1909" y1="39.9997" x2="55.8175" y2="39.7791" gradientUnits="userSpaceOnUse">
<stop stop-color="#FF7A00"/>
<stop offset="1" stop-color="#FFB039"/>
</linearGradient>
</defs>
</svg>
