<svg width="24" height="24" viewBox="0 0 24 24" fill="none" xmlns="http://www.w3.org/2000/svg">
<path d="M13.3602 5.22985C13.259 5.3138 13.1753 5.4169 13.1139 5.53325C13.0526 5.6496 13.0148 5.7769 13.0027 5.90788C12.9906 6.03886 13.0045 6.17093 13.0436 6.29653C13.0826 6.42213 13.146 6.5388 13.2302 6.63985L16.8602 10.9999L5.00024 10.9999C4.73503 10.9999 4.48067 11.1052 4.29314 11.2927C4.1056 11.4803 4.00024 11.7346 4.00024 11.9999C4.00024 12.2651 4.1056 12.5194 4.29314 12.707C4.48067 12.8945 4.73503 12.9999 5.00024 12.9999L16.8602 12.9998L13.2302 17.3598C13.1462 17.461 13.0829 17.5776 13.0439 17.7032C13.005 17.8288 12.9912 17.9608 13.0032 18.0918C13.0153 18.2227 13.053 18.35 13.1143 18.4663C13.1756 18.5827 13.2591 18.6858 13.3602 18.7698C13.4614 18.8539 13.578 18.9172 13.7036 18.9562C13.8292 18.9951 13.9612 19.0089 14.0922 18.9969C14.2231 18.9848 14.3504 18.9471 14.4667 18.8858C14.5831 18.8245 14.6862 18.741 14.7702 18.6398L19.7702 12.6398L19.8602 12.4898L19.9302 12.3598C20.0196 12.1282 20.0196 11.8715 19.9302 11.6399L19.8602 11.5099L19.7702 11.3598L14.7702 5.35985C14.6863 5.25859 14.5832 5.17489 14.4668 5.11354C14.3505 5.05219 14.2232 5.01439 14.0922 5.00231C13.9612 4.99024 13.8292 5.00412 13.7036 5.04317C13.578 5.08221 13.4613 5.14565 13.3602 5.22985Z" fill="#4F478F"/>
</svg>
